<?xml version="1.0" encoding="UTF-8"?>
<svg xmlns="http://www.w3.org/2000/svg" version="1.1" xmlns:xlink="http://www.w3.org/1999/xlink" viewBox="0 0 500 500">
  <!-- Generator: Adobe Illustrator 29.8.2, SVG Export Plug-In . SVG Version: 2.1.1 Build 3)  -->
  <defs>
    <style>
      .st0 {
        fill: url(#linear-gradient2);
      }

      .st0, .st1, .st2, .st3 {
        mix-blend-mode: multiply;
      }

      .st0, .st1, .st4, .st3 {
        stroke: #fff;
        stroke-miterlimit: 10;
      }

      .st1 {
        fill: url(#linear-gradient);
      }

      .st2 {
        fill: url(#linear-gradient1);
      }

      .st5 {
        font-size: 32.61px;
      }

      .st6, .st7, .st8, .st9 {
        fill: #fff;
      }

      .st4 {
        fill: none;
      }

      .st7 {
        filter: url(#drop-shadow-3);
      }

      .st10 {
        filter: url(#drop-shadow-4);
      }

      .st3 {
        fill: url(#linear-gradient3);
      }

      .st11 {
        isolation: isolate;
      }

      .st8 {
        filter: url(#drop-shadow-1);
      }

      .st12 {
        font-family: CourierNewPSMT, 'Courier New';
      }

      .st13 {
        font-family: CourierNewPS-BoldMT, 'Courier New';
        font-weight: 700;
      }

      .st9 {
        filter: url(#drop-shadow-2);
      }

      .st14 {
        font-family: CourierNewPS-ItalicMT, 'Courier New';
        font-size: 19.02px;
        font-style: italic;
      }
    </style>
    <filter id="drop-shadow-1" x="211" y="134" width="75" height="65" filterUnits="userSpaceOnUse">
      <feOffset dx="0" dy="0"/>
      <feGaussianBlur result="blur" stdDeviation="6"/>
      <feFlood flood-color="#000" flood-opacity=".29"/>
      <feComposite in2="blur" operator="in"/>
      <feComposite in="SourceGraphic"/>
    </filter>
    <filter id="drop-shadow-2" x="201" y="176" width="60" height="100" filterUnits="userSpaceOnUse">
      <feOffset dx="0" dy="0"/>
      <feGaussianBlur result="blur1" stdDeviation="6"/>
      <feFlood flood-color="#000" flood-opacity=".29"/>
      <feComposite in2="blur1" operator="in"/>
      <feComposite in="SourceGraphic"/>
    </filter>
    <filter id="drop-shadow-3" x="236" y="176" width="59" height="100" filterUnits="userSpaceOnUse">
      <feOffset dx="0" dy="0"/>
      <feGaussianBlur result="blur2" stdDeviation="6"/>
      <feFlood flood-color="#000" flood-opacity=".29"/>
      <feComposite in2="blur2" operator="in"/>
      <feComposite in="SourceGraphic"/>
    </filter>
    <linearGradient id="linear-gradient" x1="208.67" y1="221.3" x2="229.87" y2="219.88" gradientUnits="userSpaceOnUse">
      <stop offset="0" stop-color="#fff" stop-opacity="0"/>
      <stop offset=".05" stop-color="#f2efef" stop-opacity=".07"/>
      <stop offset=".46" stop-color="#957b7c" stop-opacity=".58"/>
      <stop offset=".79" stop-color="#5b3435" stop-opacity=".89"/>
      <stop offset="1" stop-color="#471b1c"/>
    </linearGradient>
    <linearGradient id="linear-gradient1" x1="252.61" y1="228.24" x2="258.05" y2="227.87" gradientTransform="translate(-37.07 50.39) rotate(-11.14)" xlink:href="#linear-gradient"/>
    <linearGradient id="linear-gradient2" x1="236.58" y1="224.4" x2="239.58" y2="224.2" gradientTransform="translate(-37.07 50.39) rotate(-11.14)" xlink:href="#linear-gradient"/>
    <linearGradient id="linear-gradient3" x1="201.99" y1="208.91" x2="203.91" y2="192.88" gradientUnits="userSpaceOnUse">
      <stop offset="0" stop-color="#fff" stop-opacity="0"/>
      <stop offset=".09" stop-color="#eaedf0" stop-opacity=".12"/>
      <stop offset=".39" stop-color="#acb7c1" stop-opacity=".5"/>
      <stop offset=".65" stop-color="#7e90a0" stop-opacity=".77"/>
      <stop offset=".86" stop-color="#63788b" stop-opacity=".94"/>
      <stop offset="1" stop-color="#597084"/>
    </linearGradient>
    <filter id="drop-shadow-4" x="131" y="153" width="213" height="142" filterUnits="userSpaceOnUse">
      <feOffset dx="0" dy="0"/>
      <feGaussianBlur result="blur3" stdDeviation="6"/>
      <feFlood flood-color="#000" flood-opacity=".29"/>
      <feComposite in2="blur3" operator="in"/>
      <feComposite in="SourceGraphic"/>
    </filter>
  </defs>
  <g class="st11">
    <g id="OBJECTS">
      <polygon class="st6" points="257.09 218.98 238.95 218.98 237.16 232.49 258.8 232.49 257.09 218.98"/>
      <path class="st8" d="M266.02,167.44l1.05,9.01.51,4.45h-15.14l-.56-4.45-.84-6.63c-.17-1.36-1.33-2.38-2.7-2.38h0c-1.37,0-2.52,1.01-2.7,2.37l-.88,6.64-.59,4.45h-15.15l.55-4.45,1.11-9.01.03-.2c1.15-8.66,8.54-15.13,17.27-15.13h.74c8.81,0,16.24,6.58,17.3,15.33h0Z"/>
      <polygon class="st9" points="237.33 194.41 227.36 194.41 224.34 218.98 222.68 232.49 219.66 257.06 234.07 257.06 237.33 232.49 239.12 218.98 242.38 194.41 237.33 194.41"/>
      <polygon class="st7" points="273.6 232.49 272.02 218.98 269.14 194.41 254.09 194.41 257.2 218.98 258.91 232.49 262.03 257.06 276.47 257.06 273.6 232.49"/>
      <path class="st1" d="M207.34,215.58c-.06-.05-.12-.11-.18-.16-1.5-1.47-2.53-3.12-3.12-4.95h-14.4c.25,1.78.67,3.49,1.28,5.12,1.29,3.45,3.39,6.56,6.31,9.34,5.23,5.05,11.55,7.57,18.94,7.57h6.25l1.66-13.51h-7.91c-3.43,0-6.37-1.13-8.84-3.4Z"/>
      <polyline class="st2" points="251.88 232.49 258.96 232.49 257.25 218.98 249.21 218.98"/>
      <line class="st0" x1="239.12" y1="218.98" x2="237.33" y2="230.82"/>
      <path class="st6" d="M298.47,226.55c-5.23-5.04-11.55-7.57-18.94-7.57h-7.5l1.58,13.51h5.92c3.5,0,6.51,1.19,9.02,3.56,2.47,2.42,3.7,5.34,3.7,8.75s-1.23,6.27-3.7,8.69c-2.51,2.38-5.51,3.56-9.02,3.56h-63.48c-1.54,0-3.32-.19-4.91-.72-2.5-.83-4.15-3.22-4.15-5.86h0c0-6.47-5.24-11.71-11.71-11.71h-4.22v12.17c0,6.12,2.81,11.64,7.11,14.69,4.67,3.25,12.04,4.88,17.88,4.88l.26.06h1.7s14.27,0,14.27,0h45.77s1.22,0,1.22,0l.26-.06c7.4,0,13.71-2.5,18.94-7.5,5.23-5.04,7.85-11.13,7.85-18.26s-2.62-13.19-7.85-18.2Z"/>
      <path class="st3" d="M207.42,215.41c.06.05.12.11.18.16h-16.41c-1.02-2.74-1.54-5.69-1.54-8.85,0-.05,0-.09,0-.14.03-6.77,5.66-12.19,12.43-12.19h14.36c-3.5,0-6.51,1.19-9.02,3.56-2.47,2.42-3.7,5.32-3.7,8.69s1.23,6.34,3.7,8.75Z"/>
      <g class="st10">
        <path class="st6" d="M309.31,182.37c4,1.56,7.4,3.45,10.17,5.61-.04-.51-.06-1.02-.06-1.55,0-1.86.84-3.18,2.03-3.97-10.89-7.64-28.37-11.56-49.86-10.67,2.85,1.63,5.55,3.48,8.09,5.53,11.43.19,21.56,1.91,29.63,5.05Z"/>
        <path class="st6" d="M321.93,221.43c-2.72,3.98-6.31,8.02-10.76,12.05-3.6,3.25-7.62,6.38-12.01,9.34-2.58,1.75-5.28,3.43-8.09,5.06-11.03,6.37-23.79,11.8-37.49,15.86-13.7,4.06-27.35,6.48-40.06,7.15-3.23.17-6.41.23-9.5.18-5.31-.09-10.41-.52-15.21-1.29-17.89-2.86-29.41-10.04-32.43-20.23-2.07-6.99.04-15.16,6.12-23.62,5.04-7.02,12.58-13.97,22.04-20.36.69-2.13,1.5-4.21,2.42-6.22.43-.96.89-1.9,1.38-2.83-28.1,16.66-42.41,37.59-37.35,54.63,3.67,12.38,16.79,20.98,36.94,24.2,5.75.92,11.88,1.37,18.3,1.37,1.94,0,3.9-.04,5.89-.13,3.76-.15,7.6-.46,11.49-.91,10.26-1.19,20.92-3.38,31.59-6.54,10.65-3.16,20.76-7.13,29.99-11.72,3.52-1.76,6.92-3.6,10.18-5.52,7.37-4.37,13.97-9.16,19.6-14.24,4.47-4.04,8.16-8.14,11.06-12.23-1.72-.61-3.1-2.2-4.07-4Z"/>
      </g>
      <path class="st6" d="M297,213h4.21v-10.47c0-2.44-.16-5.39-1.77-8.53-1.6-3.14-3.94-5.89-6.89-7.99-.02-.01-.04-.03-.06-.05-4.72-3.33-10.69-5-16.54-5l-.32-.07h-58.94l-.26.07c-7.39,0-13.71,2.5-18.94,7.5-1.91,1.84-3.47,3.82-4.68,5.94-2.11,3.69-3.17,7.79-3.17,12.32,0,3.16.51,6.11,1.54,8.85,1.29,3.45,3.39,6.56,6.31,9.34,5.23,5.05,11.55,7.57,18.94,7.57h6.25l1.66-13.51h-7.91c-3.43,0-6.37-1.13-8.84-3.4-.06-.05-.12-.11-.18-.16-2.47-2.42-3.7-5.33-3.7-8.75s1.23-6.27,3.7-8.69c2.51-2.38,5.51-3.56,9.02-3.56h59.46c3.84,0,9.39,1.55,9.39,6.32v.56c0,6.47,5.24,11.71,11.71,11.71Z"/>
      <g>
        <path class="st6" d="M368.3,197.5c-1.22.17-2.45.68-3.05-.76-.64-1.54-.7-3.38-2.38-4.3-3.98-2.18-5,3.12-7.87,3.42-2.15.22-2.52-1.67-3.46-3.11-3.24-4.98-8.38-8.4-14.58-7.78-1.92.19-3.28,1.67-5.17-.01-1.64-1.46-1.41-3.6.33-4.83,1.23-.35,2.44-.4,3.69-.77,2.92-.85,5.15-2.78,6.78-5.29,12.84.68,23.69,10.81,25.7,23.43Z"/>
        <path class="st6" d="M322.12,222.83c-.2.05-.23-.08-.35-.17-2.08-1.59-4.84-5.56-6.04-7.91s-2.76-6.65-2.86-9.22c-.02-.56,1.34-.76,1.81-.75,2.57.05,3.85,3.28,6.15,4.17,1.53.59,2.51.4,3.38,2.13,1.15,2.29-.06,3.88-.98,5.78s-.9,3.96-1.11,5.98Z"/>
        <path class="st6" d="M312.98,197.97c.61-4.56,2.4-9.01,5.21-12.64,2.27,1.23,4.73,1.68,4.97,4.74s-2.48,3.49-4.45,4.78c-1.27.83-2.4,3.12-4.03,3.12h-1.7Z"/>
        <path class="st6" d="M333.11,192.02c.7-.12,2.97-.11,3.67.03,1.7.32,3.99,2.88,5.66,2.75s2.77-1.03,4.56.04c1.98,1.18,2.15,4.76,3.48,6.37,1.01,1.22,2.98,1.15,3.73,3.19,1.04,2.83-1.29,3.66-2.31,5.6-.51.97-.12,3.04-.24,4.22-.18,1.85-1.37,2.28-2.32,3.54-1.69,2.23-2.67,6.67-6.41,5.44-1.84-.61-2.7-3.24-3.25-4.96-.82-2.56-1.13-5.66-2.07-8.13-.21-.55-1.14-2.38-1.61-2.61-.77-.37-1.51.15-2.31.21-.71.05-1.38-.02-2.02-.33s-3.5-2.58-4.03-3.12c-1.19-1.24-1.27-3.86-.48-5.3.6-1.09,3.97-5.81,4.83-6.42.25-.18.84-.46,1.13-.51Z"/>
        <path class="st6" d="M357.49,209.95c.53-.09.97.32,1.14.8.31.89.91,3.93.98,4.88.01.19.04.37,0,.56l-3.18,5.38c-.17.23-.67.44-.95.4-.52-.07-2.71-2.29-2.82-2.82-.03-.13-.03-.19-.02-.33.04-.72.81-4.64,1.07-5.26.15-.36,2.66-2.9,3.09-3.24.17-.13.47-.35.68-.39Z"/>
        <path class="st6" d="M329.08,202.85c-.61-.69-.42-1.89-.3-2.74,1.35-1.65,2.49-3.92,3.9-5.48.17-.19.45-.52.69-.6.4-.12,2.63-.11,3.06,0,1.41.36,3.4,2.48,5.01,2.73,1.78.28,4.1-1.35,5.09.42s1.44,4.62,3.04,5.87c.86.68,2.96,1.31,2.91,2.58-.03.92-1.95,2.61-2.43,3.55-.74,1.44-.2,3.24-.37,4.79-.12,1.07-1.23,1.68-1.86,2.48-1.07,1.39-1.76,3.24-2.89,4.61-.58.44-1.46.39-1.94-.18-.37-.44-1.17-2.56-1.37-3.2-.94-2.95-1.82-10.5-4.68-11.96-1.62-.83-2.66.07-4.26-.07l-3.58-2.8Z"/>
        <path class="st6" d="M357.04,213.1c.02.77.63,2.14.44,2.84-.09.33-1.63,2.8-1.93,3.22-.05.06,0,.22-.2.14-.12-.05-.62-.57-.62-.73.43-1.17.39-3.01.82-4.1.07-.19.94-1.05,1.14-1.2.12-.09.15-.23.35-.17Z"/>
      </g>
      <text class="st6" transform="translate(122.23 321.59)"><tspan class="st5"><tspan class="st13" x="0" y="0">Sham Al-Aseel</tspan><tspan class="st12" x="255.54" y="0"> </tspan></tspan><tspan class="st14"><tspan x="47.87" y="25.81">Cargo Services</tspan></tspan></text>
      <circle class="st4" cx="341.14" cy="201.76" r="27.69"/>
    </g>
  </g>
</svg>